<?xml version="1.0" encoding="utf-8"?>
<!-- Generator: Adobe Illustrator 28.1.0, SVG Export Plug-In . SVG Version: 6.00 Build 0)  -->
<svg version="1.1" id="a" xmlns="http://www.w3.org/2000/svg" xmlns:xlink="http://www.w3.org/1999/xlink" x="0px" y="0px"
	 viewBox="0 0 152.1 152.1" style="enable-background:new 0 0 152.1 152.1;" xml:space="preserve">
<style type="text/css">
	.st0{fill:#231F20;}
</style>
<g id="b">
	<g>
		<g>
			<path class="st0" d="M37.8,114.4v28.3H13.9c-1.6,0-3-1.1-3.3-2.7c-0.8-3.8-1.2-7.7-1.2-11.5c0-3.8,0.4-7.7,1.2-11.5
				c0.3-1.5,1.7-2.7,3.3-2.7L37.8,114.4 M45.8,106.3H13.9c-5.4,0-10.1,3.8-11.2,9.1c-0.9,4.2-1.3,8.6-1.3,13.1
				c0,4.5,0.5,8.9,1.3,13.1c1.1,5.3,5.8,9.1,11.2,9.1h31.9L45.8,106.3L45.8,106.3L45.8,106.3z"/>
			<path class="st0" d="M138.2,114.4c1.6,0,3,1.1,3.3,2.7c0.8,3.8,1.2,7.7,1.2,11.5c0,3.8-0.4,7.7-1.2,11.5
				c-0.3,1.5-1.7,2.7-3.3,2.7H61.9v-28.3L138.2,114.4 M138.2,106.3H53.9v44.4h84.3c5.4,0,10.1-3.8,11.2-9.1
				c0.9-4.2,1.3-8.6,1.3-13.1c0-4.5-0.5-8.9-1.3-13.1C148.3,110.1,143.6,106.3,138.2,106.3L138.2,106.3L138.2,106.3z"/>
		</g>
		<g>
			<path class="st0" d="M37.8,61.9v28.3H13.9c-1.6,0-3-1.1-3.3-2.7c-0.8-3.8-1.2-7.7-1.2-11.5s0.4-7.7,1.2-11.5
				c0.3-1.5,1.7-2.7,3.3-2.7L37.8,61.9 M45.8,53.9H13.9c-5.4,0-10.1,3.8-11.2,9.1c-0.9,4.2-1.3,8.6-1.3,13.1c0,4.5,0.5,8.9,1.3,13.1
				c1.1,5.3,5.8,9.1,11.2,9.1h31.9L45.8,53.9L45.8,53.9L45.8,53.9z"/>
			<path class="st0" d="M138.2,61.9c1.6,0,3,1.1,3.3,2.7c0.8,3.8,1.2,7.7,1.2,11.5c0,3.8-0.4,7.7-1.2,11.5c-0.3,1.5-1.7,2.7-3.3,2.7
				h-23.8V61.9L138.2,61.9 M138.2,53.9h-31.9v44.4h31.9c5.4,0,10.1-3.8,11.2-9.1c0.9-4.2,1.3-8.6,1.3-13.1c0-4.5-0.5-8.9-1.3-13.1
				C148.3,57.7,143.6,53.9,138.2,53.9L138.2,53.9L138.2,53.9z"/>
			<path class="st0" d="M90.2,61.9v28.3H61.9V61.9H90.2 M98.3,53.9H53.9v44.4h44.4V53.9C98.3,53.9,98.3,53.9,98.3,53.9z"/>
		</g>
		<g>
			<path class="st0" d="M90.2,9.5v28.3H13.9c-1.6,0-3-1.1-3.3-2.7c-0.8-3.8-1.2-7.7-1.2-11.5s0.4-7.7,1.2-11.5
				c0.3-1.5,1.7-2.7,3.3-2.7H90.2 M98.3,1.4H13.9c-5.4,0-10.1,3.8-11.2,9.1c-0.9,4.2-1.3,8.6-1.3,13.1s0.5,8.9,1.3,13.1
				c1.1,5.3,5.8,9.1,11.2,9.1h84.3V1.4C98.3,1.4,98.3,1.4,98.3,1.4z"/>
			<path class="st0" d="M138.2,9.5c1.6,0,3,1.1,3.3,2.7c0.8,3.8,1.2,7.7,1.2,11.5s-0.4,7.7-1.2,11.5c-0.3,1.5-1.7,2.7-3.3,2.7h-23.8
				V9.5H138.2 M138.2,1.4h-31.9v44.4h31.9c5.4,0,10.1-3.8,11.2-9.1c0.9-4.2,1.3-8.6,1.3-13.1s-0.5-8.9-1.3-13.1
				C148.3,5.2,143.6,1.4,138.2,1.4L138.2,1.4L138.2,1.4z"/>
		</g>
	</g>
</g>
</svg>
