<?xml version="1.0" encoding="UTF-8"?>
<svg width="1200pt" height="1200pt" version="1.1" viewBox="0 0 1200 1200" xmlns="http://www.w3.org/2000/svg">
 <g>
  <path d="m562.5 300h-150c-19.883-0.027344-38.945-7.9375-53.004-21.996s-21.969-33.121-21.996-53.004v-150c0.027344-19.883 7.9375-38.945 21.996-53.004s33.121-21.969 53.004-21.996h150c19.883 0.027344 38.945 7.9375 53.004 21.996s21.969 33.121 21.996 53.004v150c-0.027344 19.883-7.9375 38.945-21.996 53.004s-33.121 21.969-53.004 21.996zm-150-225v150h150.07l-0.074219-150z"/>
  <path d="m1050 750h-150c-19.883-0.027344-38.945-7.9375-53.004-21.996s-21.969-33.121-21.996-53.004v-150c0.027344-19.883 7.9375-38.945 21.996-53.004s33.121-21.969 53.004-21.996h150c19.883 0.027344 38.945 7.9375 53.004 21.996s21.969 33.121 21.996 53.004v150c-0.027344 19.883-7.9375 38.945-21.996 53.004s-33.121 21.969-53.004 21.996zm-150-225v150h150.07l-0.074219-150z"/>
  <path d="m300 750h-150c-19.883-0.027344-38.945-7.9375-53.004-21.996s-21.969-33.121-21.996-53.004v-150c0.027344-19.883 7.9375-38.945 21.996-53.004s33.121-21.969 53.004-21.996h150c19.883 0.027344 38.945 7.9375 53.004 21.996s21.969 33.121 21.996 53.004v150c-0.027344 19.883-7.9375 38.945-21.996 53.004s-33.121 21.969-53.004 21.996zm-150-225v150h150.07l-0.074219-150z"/>
  <path d="m787.5 1200h-150c-19.883-0.027344-38.945-7.9375-53.004-21.996s-21.969-33.121-21.996-53.004v-150c0.027344-19.883 7.9375-38.945 21.996-53.004s33.121-21.969 53.004-21.996h150c19.883 0.027344 38.945 7.9375 53.004 21.996s21.969 33.121 21.996 53.004v150c-0.027344 19.883-7.9375 38.945-21.996 53.004s-33.121 21.969-53.004 21.996zm-150-225v150h150.07l-0.074219-150z"/>
  <path d="m975 525c-9.9453 0-19.484-3.9492-26.516-10.984-7.0352-7.0312-10.984-16.57-10.984-26.516v-262.5c-0.007812-9.9453-3.957-19.48-10.988-26.512s-16.566-10.98-26.512-10.988h-300c-13.398 0-25.777-7.1484-32.477-18.75-6.6992-11.602-6.6992-25.898 0-37.5 6.6992-11.602 19.078-18.75 32.477-18.75h300c29.828 0.03125 58.422 11.895 79.512 32.988 21.094 21.09 32.957 49.684 32.988 79.512v262.5c0 9.9453-3.9492 19.484-10.984 26.516-7.0312 7.0352-16.57 10.984-26.516 10.984z"/>
  <path d="m862.5 637.5h-525c-13.398 0-25.777-7.1484-32.477-18.75-6.6992-11.602-6.6992-25.898 0-37.5 6.6992-11.602 19.078-18.75 32.477-18.75h525c13.398 0 25.777 7.1484 32.477 18.75 6.6992 11.602 6.6992 25.898 0 37.5-6.6992 11.602-19.078 18.75-32.477 18.75z"/>
  <path d="m600 1087.5h-300c-29.828-0.03125-58.422-11.895-79.512-32.988-21.094-21.09-32.957-49.684-32.988-79.512v-262.5c0-13.398 7.1484-25.777 18.75-32.477 11.602-6.6992 25.898-6.6992 37.5 0 11.602 6.6992 18.75 19.078 18.75 32.477v262.5c0.007812 9.9453 3.957 19.48 10.988 26.512s16.566 10.98 26.512 10.988h300c13.398 0 25.777 7.1484 32.477 18.75 6.6992 11.602 6.6992 25.898 0 37.5-6.6992 11.602-19.078 18.75-32.477 18.75z"/>
  <path d="m166.81 264.04c-9.9453-0.003906-19.48-3.957-26.512-10.988s-10.98-16.566-10.98-26.512c0-9.9453 3.9492-19.48 10.98-26.516l50.793-50.773-47.719-47.738c-9.2344-9.5195-12.754-23.207-9.2539-36 3.4961-12.793 13.488-22.785 26.281-26.281 12.793-3.4961 26.48 0.023437 36 9.2578l74.23 74.25c7.0312 7.0312 10.98 16.566 10.98 26.512s-3.9492 19.48-10.98 26.512l-77.305 77.289c-7.0234 7.0469-16.566 11-26.516 10.988z"/>
  <path d="m786.33 264.04c-9.9414-0.003906-19.48-3.9531-26.512-10.984-7.0312-7.0352-10.98-16.57-10.98-26.516-0.003907-9.9453 3.9453-19.48 10.977-26.516l50.797-50.773-47.719-47.738c-9.1992-9.5234-12.691-23.195-9.1914-35.965 3.5039-12.773 13.48-22.75 26.25-26.25 12.773-3.5039 26.441-0.007813 35.969 9.1914l74.25 74.25c7.0312 7.0312 10.98 16.566 10.98 26.512s-3.9492 19.48-10.98 26.512l-77.324 77.289c-7.0234 7.0469-16.566 11-26.516 10.988z"/>
  <path d="m373.83 1162.5c-9.9414 0-19.48-3.9531-26.512-10.984s-10.98-16.57-10.98-26.512c-0.003907-9.9453 3.9453-19.484 10.977-26.516l50.793-50.793-47.715-47.719c-7.2344-6.9883-11.359-16.59-11.445-26.648-0.085937-10.059 3.8711-19.73 10.98-26.844 7.1133-7.1133 16.785-11.07 26.844-10.98 10.059 0.085938 19.66 4.2109 26.648 11.445l74.27 74.227c7.0312 7.0352 10.98 16.57 10.98 26.516 0 9.9453-3.9492 19.48-10.98 26.516l-77.344 77.305c-7.0234 7.043-16.566 11-26.516 10.988z"/>
  <path d="m635.59 698.95c-9.9453 0.007813-19.488-3.9453-26.512-10.988l-74.27-74.25c-7.0273-7.0352-10.977-16.57-10.977-26.512 0-9.9453 3.9492-19.48 10.977-26.516l77.344-77.312c9.5117-9.2734 23.223-12.824 36.039-9.332 12.816 3.4922 22.828 13.508 26.32 26.324 3.4922 12.816-0.054687 26.523-9.3281 36.035l-50.832 50.793 47.754 47.754c7.0312 7.0312 10.98 16.57 10.98 26.516 0 9.9453-3.9492 19.484-10.98 26.516s-16.57 10.984-26.516 10.984z"/>
  <path d="m160.14 187.5h-122.64c-13.398 0-25.777-7.1484-32.477-18.75-6.6992-11.602-6.6992-25.898 0-37.5 6.6992-11.602 19.078-18.75 32.477-18.75h122.64c13.398 0 25.777 7.1484 32.477 18.75 6.6992 11.602 6.6992 25.898 0 37.5-6.6992 11.602-19.078 18.75-32.477 18.75z"/>
  <path d="m1085.2 1164c-9.9453-0.003906-19.484-3.9531-26.516-10.984-7.0312-7.0352-10.98-16.57-10.98-26.516 0-9.9453 3.9492-19.48 10.977-26.516l50.797-50.773-47.715-47.738c-7.2383-6.9883-11.359-16.59-11.449-26.648-0.085938-10.055 3.8711-19.727 10.984-26.84 7.1094-7.1133 16.781-11.07 26.84-10.984 10.059 0.089844 19.66 4.2148 26.648 11.449l74.25 74.25c7.0352 7.0273 10.988 16.566 10.988 26.512s-3.9531 19.484-10.988 26.512l-77.324 77.289c-7.0234 7.0469-16.566 11-26.512 10.988z"/>
  <path d="m1078.5 1087.5h-122.62c-13.398 0-25.777-7.1484-32.477-18.75-6.6992-11.602-6.6992-25.898 0-37.5 6.6992-11.602 19.078-18.75 32.477-18.75h122.62c13.398 0 25.777 7.1484 32.477 18.75 6.6992 11.602 6.6992 25.898 0 37.5-6.6992 11.602-19.078 18.75-32.477 18.75z"/>
 </g>
</svg>
