<?xml version="1.0" encoding="UTF-8"?><svg id="a" xmlns="http://www.w3.org/2000/svg" viewBox="0 0 152.13 152.15"><defs><style>.c{fill:#231f20;}</style></defs><g id="b"><g><g><path class="c" d="M51.67,100.49v18.04h-15.18c-1.02,0-1.91-.71-2.11-1.69-.5-2.42-.75-4.89-.75-7.33s.25-4.91,.75-7.33c.2-.98,1.09-1.69,2.11-1.69h15.18m5.13-5.13h-20.31c-3.44,0-6.44,2.41-7.13,5.79-.55,2.7-.85,5.49-.85,8.36s.3,5.66,.85,8.36c.69,3.37,3.69,5.79,7.13,5.79h20.31v-28.29h0Z"/><path class="c" d="M115.65,100.49c1.02,0,1.91,.71,2.11,1.69,.5,2.42,.75,4.89,.75,7.33s-.25,4.91-.75,7.33c-.2,.98-1.09,1.69-2.11,1.69h-48.6v-18.04h48.6m0-5.13H61.92v28.29h53.73c3.44,0,6.44-2.41,7.13-5.79,.55-2.7,.85-5.49,.85-8.36s-.3-5.66-.85-8.36c-.69-3.37-3.69-5.79-7.13-5.79h0Z"/></g><g><path class="c" d="M51.67,67.07v18.04h-15.18c-1.02,0-1.91-.71-2.11-1.69-.5-2.42-.75-4.89-.75-7.33s.25-4.91,.75-7.33c.2-.98,1.09-1.69,2.11-1.69h15.18m5.13-5.13h-20.31c-3.44,0-6.44,2.41-7.13,5.79-.55,2.7-.85,5.49-.85,8.36s.3,5.66,.85,8.36c.69,3.37,3.69,5.79,7.13,5.79h20.31v-28.29h0Z"/><path class="c" d="M115.65,67.07c1.02,0,1.91,.71,2.11,1.69,.5,2.42,.75,4.89,.75,7.33s-.25,4.91-.75,7.33c-.2,.98-1.09,1.69-2.11,1.69h-15.18v-18.04h15.18m0-5.13h-20.31v28.29h20.31c3.44,0,6.44-2.41,7.13-5.79,.55-2.7,.85-5.49,.85-8.36s-.3-5.66-.85-8.36c-.69-3.37-3.69-5.79-7.13-5.79h0Z"/><path class="c" d="M85.08,67.07v18.04h-18.04v-18.04h18.04m5.13-5.13h-28.29v28.29h28.29v-28.29h0Z"/></g><g><path class="c" d="M85.08,33.66v18.04H36.48c-1.02,0-1.91-.71-2.11-1.69-.5-2.42-.75-4.89-.75-7.33s.25-4.91,.75-7.33c.2-.98,1.09-1.69,2.11-1.69h48.6m5.13-5.13H36.48c-3.44,0-6.44,2.41-7.13,5.79-.55,2.7-.85,5.49-.85,8.36s.3,5.66,.85,8.36c.69,3.37,3.69,5.79,7.13,5.79h53.73V28.53h0Z"/><path class="c" d="M115.65,33.66c1.02,0,1.91,.71,2.11,1.69,.5,2.42,.75,4.89,.75,7.33s-.25,4.91-.75,7.33c-.2,.98-1.09,1.69-2.11,1.69h-15.18v-18.04h15.18m0-5.13h-20.31v28.29h20.31c3.44,0,6.44-2.41,7.13-5.79,.55-2.7,.85-5.49,.85-8.36s-.3-5.66-.85-8.36c-.69-3.37-3.69-5.79-7.13-5.79h0Z"/></g></g></g></svg>