<?xml version="1.0" encoding="UTF-8"?><svg id="a" xmlns="http://www.w3.org/2000/svg" viewBox="0 0 352.08 152.15"><defs><style>.c{fill:#00467f;}.d{fill:#333;}</style></defs><g id="b"><g><g><path class="c" d="M58.32,93.84v13.12h-11.05c-.74,0-1.39-.52-1.53-1.23-.36-1.76-.54-3.55-.54-5.33s.18-3.57,.54-5.33c.15-.71,.79-1.23,1.53-1.23h11.04m3.73-3.73h-14.77c-2.51,0-4.68,1.75-5.19,4.21-.4,1.96-.62,4-.62,6.08s.22,4.12,.62,6.08c.5,2.45,2.68,4.21,5.19,4.21h14.77v-20.58h0Z"/><path class="c" d="M104.86,93.84c.74,0,1.39,.52,1.53,1.23,.36,1.76,.54,3.56,.54,5.33s-.18,3.57-.54,5.33c-.15,.71-.79,1.23-1.53,1.23h-35.36v-13.12h35.36m0-3.73h-39.09v20.58h39.09c2.51,0,4.68-1.75,5.19-4.21,.4-1.96,.62-4,.62-6.08s-.22-4.12-.62-6.08c-.5-2.45-2.68-4.21-5.19-4.21h0Z"/></g><g><path class="c" d="M58.32,69.53v13.12h-11.05c-.74,0-1.39-.52-1.53-1.23-.36-1.76-.54-3.55-.54-5.33s.18-3.57,.54-5.33c.15-.71,.79-1.23,1.53-1.23h11.04m3.73-3.73h-14.77c-2.51,0-4.68,1.75-5.19,4.21-.4,1.96-.62,4-.62,6.08s.22,4.12,.62,6.08c.5,2.45,2.68,4.21,5.19,4.21h14.77v-20.58h0Z"/><path class="c" d="M104.86,69.53c.74,0,1.39,.52,1.53,1.23,.36,1.76,.54,3.56,.54,5.33s-.18,3.57-.54,5.33c-.15,.71-.79,1.23-1.53,1.23h-11.04v-13.12h11.04m0-3.73h-14.77v20.58h14.77c2.51,0,4.68-1.75,5.19-4.21,.4-1.96,.62-4,.62-6.08s-.22-4.12-.62-6.08c-.5-2.45-2.68-4.21-5.19-4.21h0Z"/><path class="c" d="M82.63,69.53v13.12h-13.12v-13.12h13.12m3.73-3.73h-20.58v20.58h20.58v-20.58h0Z"/></g><g><path class="c" d="M82.63,45.22v13.12H47.27c-.74,0-1.39-.52-1.53-1.23-.36-1.76-.54-3.55-.54-5.33s.18-3.57,.54-5.33c.15-.71,.79-1.23,1.53-1.23h35.36m3.73-3.73H47.27c-2.51,0-4.68,1.75-5.19,4.21-.4,1.96-.62,4-.62,6.08s.22,4.12,.62,6.08c.5,2.45,2.68,4.21,5.19,4.21h39.09v-20.58h0Z"/><path class="c" d="M104.86,45.22c.74,0,1.39,.52,1.53,1.23,.36,1.76,.54,3.56,.54,5.33s-.18,3.57-.54,5.33c-.15,.71-.79,1.23-1.53,1.23h-11.04v-13.12h11.04m0-3.73h-14.77v20.58h14.77c2.51,0,4.68-1.75,5.19-4.21,.4-1.96,.62-4,.62-6.08s-.22-4.12-.62-6.08c-.5-2.45-2.68-4.21-5.19-4.21h0Z"/></g></g><g><path class="d" d="M137.58,47.55c4.59,0,8.33,2.46,9.72,6.7h-4.77c-.98-1.99-2.76-2.96-4.98-2.96-3.62,0-6.19,2.64-6.19,6.84s2.58,6.85,6.19,6.85c2.22,0,4-.98,4.98-2.99h4.77c-1.39,4.27-5.13,6.7-9.72,6.7-5.96,0-10.49-4.36-10.49-10.55s4.53-10.58,10.49-10.58Z"/><path class="d" d="M157.29,51.81c2.64,0,4.44,1.25,5.42,2.61v-2.34h4.18v16.42h-4.18v-2.4c-.98,1.42-2.84,2.67-5.45,2.67-4.15,0-7.47-3.41-7.47-8.53s3.32-8.42,7.5-8.42Zm1.07,3.65c-2.22,0-4.33,1.66-4.33,4.77s2.1,4.89,4.33,4.89,4.36-1.72,4.36-4.83-2.07-4.83-4.36-4.83Z"/><path class="d" d="M182.45,59.43c0-2.64-1.45-4.06-3.64-4.06s-3.7,1.42-3.7,4.06v9.07h-4.15v-16.42h4.15v2.04c1.07-1.39,2.84-2.28,4.95-2.28,3.82,0,6.55,2.49,6.55,7.02v9.63h-4.15v-9.07Z"/><path class="d" d="M193.24,52.08l4.15,12.59,4.15-12.59h4.42l-6.07,16.42h-5.04l-6.04-16.42h4.44Z"/><path class="d" d="M214.73,51.81c2.64,0,4.44,1.25,5.42,2.61v-2.34h4.18v16.42h-4.18v-2.4c-.98,1.42-2.84,2.67-5.45,2.67-4.15,0-7.47-3.41-7.47-8.53s3.32-8.42,7.5-8.42Zm1.07,3.65c-2.22,0-4.33,1.66-4.33,4.77s2.1,4.89,4.33,4.89,4.36-1.72,4.36-4.83-2.07-4.83-4.36-4.83Z"/><path class="d" d="M234.68,68.76c-4.12,0-6.99-2.4-7.17-5.45h4.18c.15,1.24,1.3,2.19,2.96,2.19s2.52-.74,2.52-1.69c0-2.93-9.27-1.07-9.27-7.08,0-2.73,2.43-4.92,6.49-4.92s6.37,2.16,6.61,5.42h-3.97c-.12-1.27-1.13-2.13-2.76-2.13-1.54,0-2.34,.62-2.34,1.57,0,2.99,9.1,1.13,9.22,7.14,0,2.82-2.46,4.95-6.46,4.95Z"/><path class="d" d="M270.78,54.04h-4.77c-.95-1.75-2.67-2.67-4.86-2.67-3.7,0-6.28,2.64-6.28,6.76s2.61,6.82,6.46,6.82c3.2,0,5.25-1.84,5.87-4.77h-7.11v-3.17h11.2v3.62c-.83,4.21-4.59,8.06-10.1,8.06-6.02,0-10.58-4.36-10.58-10.55s4.56-10.58,10.55-10.58c4.62,0,8.3,2.34,9.63,6.49Z"/><path class="d" d="M278.52,68.5h-4.15v-16.42h4.15v2.55c1.04-1.69,2.76-2.79,5.04-2.79v4.36h-1.1c-2.46,0-3.94,.95-3.94,4.12v8.18Z"/><path class="d" d="M285.9,47.7c0-1.36,1.07-2.43,2.55-2.43s2.55,1.07,2.55,2.43-1.1,2.43-2.55,2.43-2.55-1.07-2.55-2.43Zm.44,4.39h4.15v16.42h-4.15v-16.42Z"/><path class="d" d="M301.04,51.81c2.16,0,4.24,1.01,5.36,2.55v-7.79h4.21v21.93h-4.21v-2.43c-.98,1.51-2.82,2.7-5.39,2.7-4.18,0-7.5-3.41-7.5-8.53s3.32-8.42,7.53-8.42Zm1.04,3.65c-2.22,0-4.33,1.66-4.33,4.77s2.1,4.89,4.33,4.89,4.36-1.72,4.36-4.83-2.07-4.83-4.36-4.83Z"/><path class="d" d="M137.02,104.07h-8.92v-20.68h8.53c4.33,0,6.73,2.25,6.73,5.33,0,2.52-1.51,4.09-3.53,4.74,2.34,.42,4,2.58,4,5.01,0,3.29-2.52,5.6-6.82,5.6Zm-.98-17.33h-3.79v5.19h3.79c1.96,0,3.08-.89,3.08-2.58s-1.13-2.61-3.08-2.61Zm.3,8.39h-4.09v5.57h4.18c2.01,0,3.2-.98,3.2-2.73s-1.27-2.84-3.29-2.84Z"/><path class="d" d="M162.65,104.07h-4.18v-2.07c-1.04,1.39-2.84,2.28-4.89,2.28-3.82,0-6.58-2.49-6.58-6.99v-9.63h4.15v9.04c0,2.64,1.45,4.06,3.65,4.06s3.67-1.42,3.67-4.06v-9.04h4.18v16.42Z"/><path class="d" d="M166.3,83.26c0-1.36,1.07-2.43,2.55-2.43s2.55,1.07,2.55,2.43-1.1,2.43-2.55,2.43-2.55-1.07-2.55-2.43Zm.44,4.39h4.15v16.42h-4.15v-16.42Z"/><path class="d" d="M174.99,82.14h4.15v21.93h-4.15v-21.93Z"/><path class="d" d="M189.69,87.38c2.16,0,4.24,1.01,5.36,2.55v-7.79h4.21v21.93h-4.21v-2.43c-.98,1.51-2.82,2.7-5.39,2.7-4.18,0-7.5-3.41-7.5-8.53s3.32-8.42,7.53-8.42Zm1.04,3.64c-2.22,0-4.33,1.66-4.33,4.77s2.1,4.89,4.33,4.89,4.36-1.72,4.36-4.83-2.07-4.83-4.36-4.83Z"/><path class="d" d="M210.49,104.33c-4.77,0-8.24-3.32-8.24-8.47s3.38-8.47,8.24-8.47,8.09,3.23,8.09,8.12c0,.53-.03,1.07-.12,1.6h-12c.21,2.43,1.87,3.79,3.94,3.79,1.78,0,2.76-.89,3.29-1.99h4.47c-.89,3.02-3.62,5.42-7.67,5.42Zm-4-10.02h7.79c-.06-2.16-1.78-3.53-3.91-3.53-1.99,0-3.56,1.27-3.88,3.53Z"/><path class="d" d="M225.76,104.07h-4.15v-16.42h4.15v2.55c1.04-1.69,2.76-2.79,5.04-2.79v4.36h-1.1c-2.46,0-3.94,.95-3.94,4.12v8.18Z"/></g></g></svg>