<svg xmlns="http://www.w3.org/2000/svg" viewBox="0 0 100 100">
  <g fill="#00457c">
    <path d="M17.855 49.88a13.09 13.09 0 0 0-11.49-13 51.92 51.92 0 0 0 0 26 13.09 13.09 0 0 0 11.49-13M25.465 45.78a4.11 4.11 0 1 0 4.11 4.1 4.11 4.11 0 0 0-4.11-4.1M82.145 49.88a13.09 13.09 0 0 0 11.49 13 51.92 51.92 0 0 0 0-26 13.09 13.09 0 0 0-11.49 13M74.535 45.78a4.11 4.11 0 1 0 4.11 4.1 4.11 4.11 0 0 0-4.11-4.1M49.915 82.15a13.1 13.1 0 0 0-12.99 11.53 52.27 52.27 0 0 0 26 0 13.1 13.1 0 0 0-13-11.49M49.915 70.43a4.11 4.11 0 1 0 4.11 4.11 4.1 4.1 0 0 0-4.11-4.11M49.915 17.82a13.1 13.1 0 0 0 13-11.49 52 52 0 0 0-26 0 13.1 13.1 0 0 0 13 11.49M49.915 21.32a4.11 4.11 0 1 0 4.11 4.11 4.1 4.1 0 0 0-4.11-4.11M72.715 72.68a13.1 13.1 0 0 0-1.06 17.3 52 52 0 0 0 18.33-18.4 13.11 13.11 0 0 0-17.27 1.1M64.405 64.37a4.1 4.1 0 1 0 5.81 0 4.09 4.09 0 0 0-5.81 0M27.215 27.18a13.09 13.09 0 0 0 1.07-17.29 52 52 0 0 0-18.37 18.36 13.09 13.09 0 0 0 17.3-1.07M29.715 29.68a4.11 4.11 0 1 0 5.81 0 4.12 4.12 0 0 0-5.81 0M72.715 27.14a13.1 13.1 0 0 0 17.29 1.07 52 52 0 0 0-18.41-18.37 13.09 13.09 0 0 0 1.12 17.3M70.185 35.43a4.11 4.11 0 1 0-5.81 0 4.12 4.12 0 0 0 5.81 0M27.195 72.6a13.11 13.11 0 0 0-17.3-1.07 52 52 0 0 0 18.37 18.37 13.11 13.11 0 0 0-1.07-17.3M29.715 64.32a4.1 4.1 0 1 0 5.81 0 4.1 4.1 0 0 0-5.81 0" class="cls-2"/>
<text x="50" y="50" text-anchor="middle" alignment-baseline="middle" font-size="70" font-family="sans-serif" style="dominant-baseline: central; text-shadow: 0 0 0.7em white;">+</text>
  </g>
</svg>
